<svg id="svg" xmlns="http://www.w3.org/2000/svg" xmlns:xlink="http://www.w3.org/1999/xlink" width="400" height="400" viewBox="0, 0, 400,400"><g id="svgg"><path id="path0" d="M161.600 35.587 C 159.290 35.759,156.332 36.102,155.027 36.350 C 153.721 36.597,151.740 36.800,150.624 36.800 C 149.508 36.800,147.966 36.981,147.197 37.203 C 146.429 37.425,144.180 37.874,142.200 38.202 C 132.895 39.743,123.710 42.988,120.714 45.794 C 117.925 48.405,117.900 48.538,118.058 59.718 L 118.200 69.713 117.200 70.410 C 116.650 70.794,114.940 71.935,113.400 72.947 C 105.763 77.962,104.398 80.671,104.404 90.800 C 104.409 99.710,105.216 101.379,112.070 106.654 C 114.215 108.304,120.933 112.000,121.789 112.000 C 122.203 112.000,125.744 113.306,127.800 114.217 C 128.460 114.510,129.810 114.933,130.800 115.157 C 133.205 115.703,136.946 116.675,139.400 117.392 C 140.500 117.713,142.726 118.164,144.347 118.393 C 145.967 118.623,147.448 118.906,147.638 119.024 C 148.154 119.343,157.660 120.780,162.000 121.195 C 164.090 121.395,168.050 121.754,170.800 121.994 C 173.550 122.234,177.330 122.602,179.200 122.812 C 183.432 123.288,220.832 123.308,226.000 122.837 C 233.950 122.112,240.678 121.234,247.400 120.044 C 249.820 119.616,253.468 118.990,255.506 118.652 C 257.545 118.315,259.433 117.903,259.701 117.737 C 259.970 117.571,261.542 117.124,263.195 116.744 C 269.046 115.399,271.415 114.758,272.660 114.182 C 273.354 113.862,274.209 113.600,274.562 113.600 C 274.914 113.600,275.875 113.240,276.696 112.800 C 277.516 112.360,278.428 112.000,278.720 112.000 C 282.178 112.000,292.798 103.954,294.824 99.800 C 296.372 96.627,296.271 84.528,294.667 81.028 C 293.648 78.805,287.410 72.000,286.391 72.000 C 285.497 72.000,282.464 69.508,282.231 68.583 C 282.091 68.022,282.001 64.703,282.032 61.206 C 282.099 53.717,281.778 52.699,278.600 50.303 C 276.258 48.537,269.764 45.283,267.896 44.941 C 267.183 44.810,266.221 44.468,265.758 44.180 C 265.296 43.893,264.216 43.531,263.358 43.376 C 262.501 43.220,261.348 42.865,260.795 42.585 C 260.242 42.306,258.892 41.944,257.795 41.782 C 256.698 41.619,255.147 41.257,254.348 40.978 C 253.550 40.698,251.840 40.349,250.548 40.201 C 249.257 40.053,247.210 39.681,246.000 39.373 C 244.790 39.065,241.460 38.536,238.600 38.199 C 235.740 37.861,232.500 37.419,231.400 37.216 C 230.300 37.013,228.320 36.833,227.000 36.816 C 225.680 36.798,223.070 36.506,221.200 36.165 C 217.345 35.464,169.488 35.000,161.600 35.587 M284.602 140.478 C 282.875 146.471,278.931 151.304,272.783 154.961 C 268.968 157.231,263.397 160.000,262.648 160.000 C 262.340 160.000,261.303 160.356,260.344 160.791 C 259.385 161.226,258.178 161.586,257.662 161.591 C 257.146 161.596,256.246 161.869,255.662 162.199 C 254.617 162.788,251.808 163.496,246.115 164.607 C 244.528 164.917,242.188 165.429,240.915 165.746 C 239.642 166.062,237.458 166.439,236.063 166.584 C 234.667 166.730,233.047 167.031,232.463 167.255 C 231.878 167.479,228.610 167.914,225.200 168.221 C 221.790 168.528,217.200 168.959,215.000 169.179 C 209.888 169.691,191.764 169.697,186.800 169.190 C 184.710 168.976,179.940 168.618,176.200 168.395 C 172.460 168.172,168.050 167.730,166.400 167.412 C 164.750 167.094,161.600 166.651,159.400 166.428 C 150.461 165.524,134.716 160.740,127.648 156.781 C 126.684 156.242,125.334 155.499,124.648 155.132 C 119.659 152.462,115.431 147.162,114.988 143.025 C 114.673 140.082,114.329 139.805,113.346 141.700 C 112.618 143.102,113.337 153.355,114.600 159.600 C 114.890 161.030,115.247 164.180,115.394 166.600 C 115.541 169.020,115.917 172.260,116.230 173.800 C 116.543 175.340,116.799 177.435,116.800 178.456 C 116.800 179.477,117.062 181.727,117.382 183.456 C 117.702 185.185,118.158 188.130,118.396 190.000 C 118.940 194.265,120.397 197.997,123.046 201.905 C 124.092 203.447,128.794 207.207,131.727 208.847 C 138.189 212.458,147.865 216.242,153.600 217.399 C 156.356 217.956,160.744 218.957,163.400 219.636 C 164.280 219.861,167.249 220.299,169.998 220.610 C 172.747 220.921,175.807 221.349,176.798 221.562 C 183.007 222.892,217.435 222.936,222.400 221.620 C 223.170 221.416,225.857 221.049,228.372 220.806 C 230.887 220.562,233.947 220.118,235.172 219.818 C 236.397 219.518,239.200 218.876,241.400 218.392 C 250.600 216.368,261.992 212.101,266.665 208.930 C 267.419 208.419,268.110 208.000,268.200 208.000 C 268.290 208.000,268.986 207.579,269.745 207.063 C 275.564 203.114,279.137 197.176,280.012 190.000 C 280.240 188.130,280.588 186.060,280.786 185.400 C 280.984 184.740,281.266 182.670,281.414 180.800 C 281.563 178.930,282.024 175.060,282.440 172.200 C 282.856 169.340,283.197 166.247,283.198 165.326 C 283.199 164.406,283.457 162.426,283.772 160.926 C 284.087 159.427,284.463 156.580,284.608 154.600 C 284.754 152.620,285.136 150.010,285.457 148.800 C 286.497 144.890,285.665 136.792,284.602 140.478 " stroke="none" fill="#088948" fill-rule="evenodd"></path><path id="path1" d="M175.400 33.665 C 170.340 33.811,165.030 34.122,163.600 34.357 C 162.170 34.592,159.448 34.788,157.550 34.792 C 155.605 34.796,153.395 35.049,152.482 35.371 C 151.591 35.685,148.914 36.065,146.532 36.215 C 144.102 36.368,141.828 36.721,141.354 37.018 C 140.888 37.310,139.358 37.670,137.954 37.818 C 136.549 37.967,134.911 38.321,134.314 38.607 C 133.716 38.892,132.456 39.253,131.514 39.410 C 130.571 39.566,129.350 39.922,128.800 40.199 C 128.250 40.477,127.170 40.839,126.400 41.004 C 125.630 41.169,124.571 41.641,124.046 42.052 C 123.521 42.463,122.822 42.800,122.492 42.800 C 122.162 42.800,121.491 43.205,121.002 43.700 C 120.513 44.195,119.769 44.870,119.350 45.200 C 118.930 45.530,118.095 46.530,117.493 47.422 L 116.400 49.043 116.400 59.300 L 116.400 69.556 115.300 70.162 C 114.695 70.495,113.701 70.974,113.092 71.226 C 112.482 71.478,111.801 72.025,111.577 72.442 C 111.354 72.859,110.946 73.200,110.670 73.200 C 109.915 73.200,105.757 77.937,104.633 80.078 C 103.348 82.523,102.562 91.272,103.188 96.146 C 103.668 99.880,104.448 101.318,107.743 104.541 L 110.136 106.882 110.464 111.541 C 110.644 114.104,111.053 117.460,111.374 119.000 C 111.695 120.540,112.067 123.375,112.200 125.300 C 112.333 127.225,112.650 129.385,112.904 130.100 C 113.787 132.579,113.536 138.224,112.500 139.191 C 111.464 140.158,111.138 149.211,112.057 151.474 C 112.309 152.093,112.850 155.750,113.259 159.600 C 114.700 173.143,114.828 174.217,115.238 176.200 C 115.465 177.300,115.892 180.810,116.187 184.000 C 116.482 187.190,117.002 190.520,117.344 191.400 C 117.685 192.280,117.973 193.567,117.982 194.259 C 117.999 195.459,119.520 198.819,121.214 201.400 C 122.642 203.576,123.097 204.964,123.376 208.000 C 123.528 209.650,123.895 211.900,124.192 213.000 C 124.488 214.100,124.840 216.752,124.973 218.894 C 125.106 221.036,125.398 223.269,125.621 223.856 C 125.845 224.444,126.210 227.371,126.434 230.362 C 126.658 233.353,127.027 236.340,127.254 237.000 C 127.482 237.660,127.828 240.223,128.022 242.695 C 128.217 245.168,128.640 248.228,128.964 249.495 C 129.288 250.763,129.734 253.791,129.957 256.223 C 130.179 258.656,130.530 261.090,130.736 261.632 C 130.942 262.173,131.237 264.593,131.392 267.008 C 131.547 269.424,131.916 272.570,132.212 274.000 C 132.509 275.430,132.866 278.040,133.005 279.800 C 133.145 281.560,133.510 284.111,133.816 285.469 C 134.123 286.826,134.485 290.156,134.621 292.869 C 134.758 295.581,135.143 298.790,135.477 300.000 C 135.812 301.210,136.226 304.270,136.397 306.800 C 136.569 309.330,136.884 311.850,137.099 312.400 C 137.313 312.950,137.615 315.610,137.769 318.311 C 137.923 321.012,138.308 324.216,138.625 325.430 C 139.745 329.731,139.436 332.444,137.400 336.179 C 136.337 338.129,135.600 340.002,135.600 340.752 C 135.600 343.947,139.552 348.967,143.300 350.533 C 144.125 350.877,144.800 351.438,144.800 351.780 C 144.800 352.200,145.181 352.400,145.980 352.400 C 146.629 352.400,147.960 352.940,148.938 353.600 C 149.916 354.260,150.843 354.800,150.998 354.800 C 151.152 354.800,151.846 355.060,152.540 355.378 C 154.465 356.262,161.040 358.798,161.443 358.814 C 161.639 358.821,162.520 359.175,163.400 359.600 C 164.280 360.025,165.414 360.379,165.920 360.386 C 166.426 360.394,167.368 360.673,168.013 361.007 C 168.658 361.340,170.044 361.717,171.093 361.843 C 172.142 361.969,173.810 362.318,174.800 362.618 C 180.256 364.273,199.538 365.365,207.177 364.452 C 209.280 364.201,212.710 363.805,214.800 363.573 C 216.890 363.341,219.500 362.908,220.600 362.611 C 221.700 362.314,223.410 361.947,224.400 361.797 C 225.390 361.646,227.010 361.282,228.000 360.988 C 234.153 359.163,236.840 358.259,237.030 357.951 C 237.150 357.758,237.692 357.600,238.235 357.600 C 238.778 357.600,240.293 357.060,241.600 356.400 C 242.907 355.740,244.180 355.200,244.427 355.200 C 244.674 355.200,245.365 354.852,245.963 354.427 C 246.560 354.001,247.578 353.526,248.224 353.370 C 250.905 352.724,255.284 349.617,257.046 347.112 C 258.042 345.696,258.097 345.348,258.193 339.884 C 258.252 336.580,258.487 333.785,258.747 333.298 C 258.996 332.833,259.200 331.606,259.200 330.571 C 259.200 329.537,259.550 326.330,259.978 323.445 C 260.405 320.560,260.943 316.940,261.172 315.400 C 261.401 313.860,261.859 309.900,262.189 306.600 C 262.519 303.300,262.976 299.934,263.205 299.119 C 263.433 298.305,263.802 295.605,264.024 293.119 C 264.246 290.634,264.680 287.340,264.989 285.800 C 265.298 284.260,265.652 281.556,265.777 279.791 C 265.902 278.026,266.186 275.956,266.408 275.191 C 266.631 274.426,266.991 271.657,267.208 269.039 C 267.425 266.420,267.776 263.630,267.988 262.839 C 268.199 262.047,268.654 258.990,268.997 256.045 C 269.340 253.100,269.723 250.525,269.848 250.322 C 269.973 250.120,270.239 248.030,270.439 245.677 C 270.640 243.325,271.059 240.050,271.372 238.400 C 271.684 236.750,272.047 233.780,272.178 231.800 C 272.309 229.820,272.660 227.390,272.958 226.400 C 273.256 225.410,273.635 222.534,273.800 220.010 C 273.965 217.485,274.347 214.717,274.650 213.859 C 274.952 213.001,275.209 211.557,275.221 210.650 C 275.270 206.796,276.964 200.588,278.147 199.926 C 278.506 199.725,278.800 199.185,278.800 198.727 C 278.800 198.269,279.138 197.333,279.551 196.647 C 279.965 195.961,280.431 194.680,280.587 193.800 C 280.744 192.920,281.026 192.013,281.215 191.784 C 281.404 191.556,281.761 188.621,282.008 185.263 C 282.256 181.905,282.694 178.582,282.981 177.879 C 283.268 177.175,283.631 174.082,283.789 171.004 C 283.946 167.926,284.269 165.046,284.507 164.604 C 284.745 164.162,285.077 162.037,285.245 159.881 C 285.413 157.726,285.737 155.386,285.965 154.681 C 287.303 150.543,287.227 139.177,285.851 137.656 C 285.234 136.975,285.223 136.764,285.744 135.550 C 286.276 134.308,286.870 130.162,288.171 118.598 C 288.444 116.177,288.877 113.804,289.133 113.325 C 289.390 112.845,289.600 111.639,289.600 110.645 C 289.600 108.492,290.251 106.879,291.541 105.837 C 292.061 105.418,292.691 104.820,292.943 104.509 C 293.194 104.197,293.670 103.638,294.000 103.265 C 296.989 99.888,297.956 96.489,297.556 90.764 C 296.806 80.045,296.770 79.970,288.586 71.993 C 288.138 71.557,287.553 71.200,287.286 71.200 C 287.019 71.200,286.800 71.034,286.800 70.831 C 286.800 70.628,286.186 70.259,285.435 70.012 C 283.609 69.409,283.600 69.364,283.600 61.314 C 283.600 54.775,283.539 54.195,282.716 52.847 C 281.692 51.172,279.835 49.200,279.280 49.200 C 279.070 49.200,278.665 48.920,278.381 48.577 C 278.096 48.234,277.309 47.698,276.632 47.385 C 275.954 47.072,275.130 46.663,274.800 46.476 C 272.767 45.325,270.769 44.400,270.315 44.400 C 270.025 44.400,269.161 44.067,268.394 43.661 C 267.627 43.254,266.222 42.800,265.272 42.652 C 264.321 42.503,263.151 42.128,262.672 41.817 C 262.192 41.507,260.678 41.128,259.307 40.975 C 257.935 40.823,256.608 40.451,256.358 40.149 C 256.107 39.847,255.249 39.592,254.451 39.582 C 253.653 39.573,252.280 39.299,251.400 38.975 C 250.520 38.651,247.780 38.202,245.312 37.977 C 242.843 37.753,240.233 37.328,239.512 37.033 C 238.790 36.739,235.682 36.369,232.604 36.211 C 229.526 36.054,226.653 35.735,226.219 35.503 C 225.785 35.271,222.543 34.944,219.015 34.777 C 215.487 34.610,211.160 34.282,209.400 34.049 C 205.392 33.517,187.538 33.315,175.400 33.665 M221.200 36.165 C 223.070 36.506,225.680 36.798,227.000 36.816 C 228.320 36.833,230.300 37.013,231.400 37.216 C 232.500 37.419,235.740 37.861,238.600 38.199 C 241.460 38.536,244.790 39.065,246.000 39.373 C 247.210 39.681,249.257 40.053,250.548 40.201 C 251.840 40.349,253.550 40.698,254.348 40.978 C 255.147 41.257,256.698 41.619,257.795 41.782 C 258.892 41.944,260.242 42.306,260.795 42.585 C 261.348 42.865,262.501 43.220,263.358 43.376 C 264.216 43.531,265.296 43.893,265.758 44.180 C 266.221 44.468,267.183 44.810,267.896 44.941 C 269.764 45.283,276.258 48.537,278.600 50.303 C 281.778 52.699,282.099 53.717,282.032 61.206 C 282.001 64.703,282.091 68.022,282.231 68.583 C 282.464 69.508,285.497 72.000,286.391 72.000 C 286.584 72.000,288.280 73.498,290.161 75.328 C 295.347 80.376,295.748 81.467,295.777 90.600 C 295.807 100.033,295.311 101.106,288.200 106.998 C 286.548 108.367,279.662 112.000,278.720 112.000 C 278.428 112.000,277.516 112.360,276.696 112.800 C 275.875 113.240,274.914 113.600,274.562 113.600 C 274.209 113.600,273.354 113.862,272.660 114.182 C 271.415 114.758,269.046 115.399,263.195 116.744 C 261.542 117.124,259.970 117.571,259.701 117.737 C 259.433 117.903,257.545 118.315,255.506 118.652 C 253.468 118.990,249.820 119.616,247.400 120.044 C 240.678 121.234,233.950 122.112,226.000 122.837 C 220.832 123.308,183.432 123.288,179.200 122.812 C 177.330 122.602,173.550 122.234,170.800 121.994 C 168.050 121.754,164.090 121.395,162.000 121.195 C 157.660 120.780,148.154 119.343,147.638 119.024 C 147.448 118.906,145.967 118.623,144.347 118.393 C 142.726 118.164,140.500 117.713,139.400 117.392 C 136.946 116.675,133.205 115.703,130.800 115.157 C 129.810 114.933,128.460 114.510,127.800 114.217 C 125.744 113.306,122.203 112.000,121.789 112.000 C 120.933 112.000,114.215 108.304,112.070 106.654 C 105.216 101.379,104.409 99.710,104.404 90.800 C 104.398 80.671,105.763 77.962,113.400 72.947 C 114.940 71.935,116.650 70.794,117.200 70.410 L 118.200 69.713 118.058 59.718 C 117.900 48.538,117.925 48.405,120.714 45.794 C 123.710 42.988,132.895 39.743,142.200 38.202 C 144.180 37.874,146.429 37.425,147.197 37.203 C 147.966 36.981,149.508 36.800,150.624 36.800 C 151.740 36.800,153.721 36.597,155.027 36.350 C 161.780 35.069,214.369 34.922,221.200 36.165 M120.707 113.600 C 121.056 114.159,121.658 114.408,122.703 114.425 C 124.008 114.447,124.084 114.497,123.296 114.814 C 122.273 115.225,121.116 114.854,119.600 113.627 C 118.677 112.880,118.662 112.817,119.404 112.809 C 119.846 112.804,120.432 113.160,120.707 113.600 M130.200 116.800 C 130.776 117.437,131.432 117.600,133.415 117.600 C 135.570 117.600,135.935 117.708,136.116 118.400 C 136.296 119.087,136.662 119.200,138.712 119.200 C 140.025 119.200,141.887 119.486,142.850 119.835 C 143.812 120.184,146.085 120.570,147.900 120.691 C 150.144 120.842,151.200 121.072,151.200 121.410 C 151.200 122.189,152.611 122.389,158.169 122.395 C 162.507 122.399,163.460 122.511,164.104 123.094 C 164.767 123.694,165.988 123.808,173.135 123.938 C 177.681 124.020,181.490 124.225,181.600 124.394 C 181.935 124.907,194.116 125.603,202.733 125.601 C 208.865 125.600,210.827 125.718,210.707 126.078 C 210.433 126.901,208.336 127.195,204.515 126.946 C 200.060 126.656,198.195 126.969,199.350 127.813 C 199.890 128.208,200.806 128.295,202.634 128.124 C 205.922 127.817,209.026 129.597,206.400 130.284 C 205.686 130.471,205.600 130.830,205.600 133.623 L 205.600 136.752 207.100 136.876 L 208.600 137.000 208.600 139.200 L 208.600 141.400 205.500 141.517 L 202.400 141.634 202.400 147.017 L 202.400 152.400 203.500 152.406 C 205.006 152.415,205.552 152.838,205.979 154.328 C 206.265 155.325,206.223 155.600,205.785 155.600 C 205.446 155.600,205.318 155.358,205.461 154.985 C 206.088 153.352,202.781 152.076,201.429 153.429 C 200.635 154.222,200.623 154.800,201.400 154.800 C 201.730 154.800,202.000 154.992,202.000 155.227 C 202.000 155.475,202.343 155.545,202.820 155.394 C 203.300 155.241,204.039 155.396,204.606 155.767 C 205.137 156.115,206.343 156.406,207.286 156.413 C 210.017 156.433,212.149 159.118,209.981 159.806 C 209.289 160.026,209.215 160.164,209.647 160.438 C 209.951 160.630,210.020 160.803,209.800 160.822 C 209.580 160.841,209.760 161.002,210.200 161.180 C 210.877 161.454,210.769 161.549,209.500 161.797 C 208.675 161.957,208.000 162.263,208.000 162.476 C 208.000 162.692,207.505 162.755,206.883 162.618 C 206.012 162.427,205.555 162.596,204.813 163.386 C 204.289 163.944,204.027 164.403,204.230 164.406 C 204.434 164.409,204.330 164.587,204.000 164.800 C 203.670 165.013,202.050 165.194,200.400 165.202 C 197.198 165.217,194.303 165.595,189.800 166.585 C 186.504 167.309,176.800 167.440,176.129 166.769 C 175.289 165.929,172.527 165.589,166.639 165.602 C 161.532 165.613,160.569 165.515,159.912 164.920 C 159.322 164.386,158.216 164.189,155.124 164.065 C 151.865 163.934,150.961 163.761,150.352 163.152 C 149.826 162.626,149.026 162.400,147.689 162.400 C 146.273 162.400,145.600 162.193,145.093 161.600 C 144.569 160.988,143.913 160.800,142.300 160.800 C 140.626 160.800,140.090 160.636,139.693 160.000 C 139.307 159.382,138.760 159.200,137.286 159.200 C 135.873 159.200,135.200 158.992,134.693 158.400 C 134.316 157.960,133.575 157.600,133.047 157.600 C 132.518 157.600,131.986 157.340,131.864 157.022 C 131.742 156.704,131.003 156.324,130.221 156.178 C 128.948 155.939,128.800 155.779,128.800 154.644 C 128.800 153.082,127.816 151.600,126.777 151.600 C 125.863 151.600,125.726 150.480,126.600 150.145 C 126.930 150.018,127.194 149.439,127.187 148.857 C 127.176 147.903,127.124 147.867,126.653 148.486 C 125.926 149.443,125.177 148.614,125.466 147.172 C 125.635 146.326,125.487 145.936,124.844 145.535 C 123.797 144.881,123.772 144.261,124.765 143.549 C 125.735 142.853,126.327 139.236,125.837 137.000 C 125.740 136.560,125.647 135.964,125.631 135.676 C 125.614 135.388,125.408 135.272,125.173 135.417 C 124.938 135.562,124.837 135.920,124.949 136.211 C 125.177 136.804,124.184 137.822,123.872 137.316 C 123.234 136.284,123.178 134.116,123.777 133.619 C 124.249 133.228,124.347 132.723,124.152 131.687 C 123.965 130.687,124.020 130.365,124.345 130.566 C 124.595 130.721,124.800 130.631,124.800 130.368 C 124.800 130.104,125.110 129.661,125.489 129.384 C 126.054 128.971,126.097 128.711,125.729 127.940 C 124.766 125.922,124.319 124.389,124.531 123.836 C 124.813 123.100,123.967 120.706,123.266 120.261 C 122.845 119.994,122.898 119.806,123.521 119.371 C 123.954 119.067,124.433 118.321,124.586 117.713 C 125.072 115.779,128.736 115.182,130.200 116.800 M179.600 125.600 C 179.600 126.069,179.907 126.069,181.000 125.600 C 181.709 125.295,181.675 125.253,180.700 125.228 C 180.095 125.213,179.600 125.380,179.600 125.600 M285.921 143.232 C 285.995 145.300,285.816 147.449,285.457 148.800 C 285.136 150.010,284.754 152.620,284.608 154.600 C 284.463 156.580,284.087 159.427,283.772 160.926 C 283.457 162.426,283.199 164.406,283.198 165.326 C 283.197 166.247,282.856 169.340,282.440 172.200 C 282.024 175.060,281.563 178.930,281.414 180.800 C 281.266 182.670,280.984 184.740,280.786 185.400 C 280.588 186.060,280.240 188.130,280.012 190.000 C 279.137 197.176,275.564 203.114,269.745 207.063 C 268.986 207.579,268.290 208.000,268.200 208.000 C 268.110 208.000,267.419 208.419,266.665 208.930 C 261.992 212.101,250.600 216.368,241.400 218.392 C 239.200 218.876,236.397 219.518,235.172 219.818 C 233.947 220.118,230.887 220.562,228.372 220.806 C 225.857 221.049,223.170 221.416,222.400 221.620 C 217.435 222.936,183.007 222.892,176.798 221.562 C 175.807 221.349,172.747 220.921,169.998 220.610 C 167.249 220.299,164.280 219.861,163.400 219.636 C 160.744 218.957,156.356 217.956,153.600 217.399 C 147.865 216.242,138.189 212.458,131.727 208.847 C 128.794 207.207,124.092 203.447,123.046 201.905 C 120.397 197.997,118.940 194.265,118.396 190.000 C 118.158 188.130,117.702 185.185,117.382 183.456 C 117.062 181.727,116.800 179.477,116.800 178.456 C 116.799 177.435,116.543 175.340,116.230 173.800 C 115.917 172.260,115.541 169.020,115.394 166.600 C 115.247 164.180,114.890 161.030,114.600 159.600 C 113.337 153.355,112.618 143.102,113.346 141.700 C 114.329 139.805,114.673 140.082,114.988 143.025 C 115.431 147.162,119.659 152.462,124.648 155.132 C 125.334 155.499,126.684 156.242,127.648 156.781 C 134.716 160.740,150.461 165.524,159.400 166.428 C 161.600 166.651,164.750 167.094,166.400 167.412 C 168.050 167.730,172.460 168.172,176.200 168.395 C 179.940 168.618,184.710 168.976,186.800 169.190 C 191.764 169.697,209.888 169.691,215.000 169.179 C 217.200 168.959,221.790 168.528,225.200 168.221 C 228.610 167.914,231.878 167.479,232.463 167.255 C 233.047 167.031,234.667 166.730,236.063 166.584 C 237.458 166.439,239.642 166.062,240.915 165.746 C 242.188 165.429,244.528 164.917,246.115 164.607 C 251.808 163.496,254.617 162.788,255.662 162.199 C 256.246 161.869,257.146 161.596,257.662 161.591 C 258.178 161.586,259.385 161.226,260.344 160.791 C 261.303 160.356,262.340 160.000,262.648 160.000 C 263.397 160.000,268.968 157.231,272.783 154.961 C 278.931 151.304,282.875 146.471,284.602 140.478 C 285.161 138.540,285.800 139.877,285.921 143.232 M122.800 146.200 C 122.800 146.530,122.620 146.800,122.400 146.800 C 122.180 146.800,122.000 146.530,122.000 146.200 C 122.000 145.870,122.180 145.600,122.400 145.600 C 122.620 145.600,122.800 145.870,122.800 146.200 M199.907 164.690 C 200.626 164.779,201.706 164.777,202.307 164.686 C 202.908 164.595,202.320 164.522,201.000 164.524 C 199.680 164.526,199.188 164.601,199.907 164.690 M135.532 213.134 C 135.652 213.976,135.805 214.036,137.232 213.795 C 138.469 213.586,138.800 213.655,138.800 214.122 C 138.800 214.782,139.622 215.199,140.933 215.203 C 141.410 215.204,142.340 215.563,143.000 216.000 C 143.660 216.437,144.720 216.796,145.356 216.797 C 145.992 216.799,146.735 217.105,147.008 217.478 C 147.365 217.967,148.270 218.202,150.252 218.322 C 151.763 218.414,153.270 218.717,153.600 218.997 C 153.930 219.277,154.621 219.634,155.137 219.791 C 155.806 219.996,156.016 220.294,155.874 220.839 C 155.616 221.824,156.044 221.808,156.907 220.800 C 157.736 219.833,160.800 219.641,160.800 220.557 C 160.800 221.348,161.706 221.600,164.548 221.600 C 166.241 221.600,167.530 221.854,168.600 222.400 C 169.980 223.103,170.959 223.200,176.712 223.200 C 182.918 223.200,183.242 223.238,183.017 223.947 C 182.726 224.865,185.264 225.267,192.400 225.435 C 198.605 225.581,200.495 225.929,199.388 226.722 C 198.840 227.115,198.719 228.000,199.214 228.000 C 199.495 228.000,199.490 228.258,199.200 228.800 C 198.789 229.568,199.303 230.005,199.756 229.272 C 200.264 228.450,204.498 228.972,204.841 229.900 C 205.189 230.841,205.092 230.907,203.258 230.968 L 202.317 231.000 202.379 236.587 C 202.450 243.057,202.225 242.523,204.900 242.566 C 206.983 242.600,207.001 242.611,207.129 243.944 C 207.281 245.531,205.859 247.361,204.709 247.060 C 204.055 246.889,204.000 247.312,204.000 252.475 C 204.000 257.738,203.952 258.087,203.200 258.284 C 202.594 258.443,202.400 258.830,202.400 259.884 C 202.400 260.938,202.206 261.325,201.600 261.484 C 200.994 261.643,200.800 262.030,200.800 263.084 C 200.800 264.138,200.606 264.525,200.000 264.684 C 199.259 264.878,199.200 265.230,199.200 269.484 C 199.200 273.738,199.141 274.090,198.400 274.284 C 197.723 274.461,197.600 274.830,197.600 276.684 C 197.600 278.538,197.477 278.907,196.800 279.084 C 196.038 279.283,196.000 279.630,196.000 286.321 C 196.000 293.867,195.629 295.200,193.530 295.200 C 192.368 295.200,192.435 301.411,193.600 301.716 C 194.206 301.875,194.400 302.262,194.400 303.316 C 194.400 304.370,194.594 304.757,195.200 304.916 C 196.994 305.385,196.007 306.795,193.614 307.183 L 192.200 307.412 192.000 314.102 C 191.844 319.336,191.912 320.836,192.315 320.990 C 192.696 321.135,192.800 322.153,192.715 324.893 L 192.600 328.600 190.342 328.719 C 188.494 328.816,188.046 328.980,187.879 329.619 C 187.767 330.048,187.409 330.400,187.084 330.400 C 185.787 330.400,185.951 334.989,187.261 335.332 C 187.936 335.508,188.027 335.831,187.922 337.668 L 187.800 339.800 185.668 339.922 C 183.800 340.029,183.510 339.943,183.322 339.222 C 183.151 338.571,182.784 338.400,181.553 338.400 L 180.000 338.400 180.000 340.637 C 180.000 342.502,179.873 342.908,179.237 343.074 C 178.817 343.184,178.384 343.617,178.274 344.037 C 178.165 344.457,177.788 344.800,177.437 344.800 C 177.067 344.800,176.800 345.135,176.800 345.600 C 176.800 346.680,178.237 346.665,178.521 345.582 C 178.715 344.837,178.998 344.774,181.667 344.882 L 184.600 345.000 184.722 347.132 C 184.827 348.970,184.736 349.292,184.059 349.469 C 183.627 349.582,183.184 350.017,183.074 350.437 C 182.937 350.961,182.519 351.201,181.737 351.202 C 179.454 351.207,177.619 351.975,177.403 353.018 C 176.738 356.232,176.820 356.095,175.682 355.899 C 175.087 355.797,174.278 355.576,173.884 355.408 C 173.321 355.167,173.067 355.369,172.696 356.351 C 172.002 358.191,169.006 358.247,168.606 356.428 C 168.226 354.698,167.376 354.129,166.726 355.170 C 166.405 355.684,165.788 356.000,165.104 356.000 C 163.304 356.000,163.768 354.327,165.700 353.854 C 166.454 353.669,166.800 353.327,166.800 352.766 C 166.800 351.485,164.756 351.886,164.081 353.300 C 163.472 354.576,160.400 354.993,160.400 353.800 C 160.400 353.470,160.601 353.200,160.847 353.200 C 161.106 353.200,161.214 352.785,161.104 352.209 C 160.964 351.478,161.165 351.053,161.870 350.591 C 163.015 349.841,162.809 349.353,161.198 349.000 C 160.542 348.855,159.836 348.437,159.630 348.069 C 159.341 347.551,158.640 347.393,156.528 347.370 C 155.028 347.353,153.485 347.199,153.100 347.027 C 152.556 346.784,152.400 346.902,152.400 347.557 C 152.400 348.934,150.566 348.682,149.800 347.200 C 149.432 346.489,149.351 346.000,149.600 346.000 C 149.831 346.000,150.191 345.550,150.400 345.000 C 150.609 344.450,151.055 344.000,151.390 344.000 C 152.309 344.000,152.159 342.113,151.200 341.600 C 150.732 341.350,150.400 340.762,150.400 340.186 C 150.400 339.467,150.616 339.200,151.200 339.200 C 152.448 339.200,152.279 336.935,150.925 335.522 C 150.334 334.905,149.614 334.400,149.325 334.400 C 148.597 334.400,148.662 336.262,149.400 336.545 C 150.068 336.801,150.236 338.800,149.590 338.800 C 149.365 338.800,148.997 338.395,148.773 337.900 C 148.549 337.405,148.107 336.550,147.790 336.000 C 147.286 335.126,147.289 334.944,147.807 334.556 C 148.713 333.878,148.515 332.247,147.400 331.200 C 146.462 330.319,146.400 330.010,146.400 326.256 C 146.400 322.654,146.310 322.155,145.500 321.293 C 144.543 320.274,144.345 311.997,145.239 310.328 C 145.850 309.186,145.651 307.656,144.836 307.219 C 144.268 306.915,144.014 306.217,143.849 304.505 C 143.216 297.962,142.919 296.096,142.337 295.000 C 141.877 294.136,141.648 292.289,141.517 288.400 C 141.377 284.243,141.170 282.682,140.616 281.620 C 140.035 280.506,139.938 279.640,140.110 277.124 C 140.259 274.948,140.143 273.432,139.726 272.104 C 139.398 271.057,139.134 269.676,139.140 269.035 C 139.145 268.395,138.801 267.187,138.375 266.351 C 137.485 264.607,137.412 263.651,138.058 262.233 C 138.402 261.478,138.402 260.659,138.058 258.946 C 137.685 257.091,137.702 256.545,138.147 256.032 C 139.074 254.961,139.270 252.263,138.545 250.544 C 138.149 249.604,137.910 247.986,137.934 246.410 C 137.960 244.747,137.763 243.499,137.387 242.924 C 137.064 242.431,136.800 241.407,136.800 240.647 C 136.800 239.888,136.428 238.399,135.974 237.339 C 134.704 234.376,134.498 229.503,135.542 227.105 C 136.380 225.181,136.098 222.964,134.818 221.422 C 134.614 221.176,134.355 220.464,134.241 219.839 C 134.128 219.213,133.757 218.395,133.418 218.019 C 133.078 217.644,132.800 217.031,132.800 216.656 C 132.800 216.281,132.531 215.872,132.202 215.746 C 131.061 215.308,132.024 214.850,133.214 215.265 C 135.341 216.006,136.339 215.025,134.800 213.707 C 133.813 212.862,133.754 211.894,134.700 212.075 C 135.085 212.148,135.459 212.625,135.532 213.134 M130.998 214.003 C 130.863 214.221,130.583 214.400,130.376 214.400 C 129.941 214.400,129.866 213.068,130.278 212.655 C 130.653 212.280,131.307 213.503,130.998 214.003 M136.000 216.800 C 136.000 217.020,136.270 217.200,136.600 217.200 C 136.930 217.200,137.200 217.020,137.200 216.800 C 137.200 216.580,136.930 216.400,136.600 216.400 C 136.270 216.400,136.000 216.580,136.000 216.800 M136.000 256.750 C 136.000 257.859,135.451 259.555,135.151 259.370 C 134.521 258.981,134.737 256.400,135.400 256.400 C 135.730 256.400,136.000 256.558,136.000 256.750 M184.684 321.600 C 184.847 322.221,185.230 322.400,186.400 322.400 C 187.570 322.400,187.953 322.221,188.116 321.600 C 188.304 320.882,188.128 320.800,186.400 320.800 C 184.672 320.800,184.496 320.882,184.684 321.600 M145.200 336.800 C 145.200 337.240,145.020 337.600,144.800 337.600 C 144.580 337.600,144.400 337.240,144.400 336.800 C 144.400 336.360,144.580 336.000,144.800 336.000 C 145.020 336.000,145.200 336.360,145.200 336.800 M147.372 340.445 C 147.031 340.997,146.000 340.863,146.000 340.267 C 146.000 339.973,146.118 339.615,146.263 339.470 C 146.625 339.108,147.644 340.005,147.372 340.445 M152.590 339.615 C 152.207 340.235,152.886 340.842,153.522 340.448 C 153.935 340.193,153.921 340.033,153.455 339.645 C 153.024 339.288,152.798 339.280,152.590 339.615 M150.000 343.000 C 150.000 343.330,149.730 343.600,149.400 343.600 C 149.070 343.600,148.800 343.330,148.800 343.000 C 148.800 342.670,149.070 342.400,149.400 342.400 C 149.730 342.400,150.000 342.670,150.000 343.000 M152.400 345.000 C 152.400 345.330,152.648 345.600,152.951 345.600 C 153.254 345.600,153.726 345.330,154.000 345.000 C 154.421 344.493,154.336 344.400,153.449 344.400 C 152.783 344.400,152.400 344.619,152.400 345.000 M164.572 347.645 C 164.286 348.108,165.052 348.783,165.876 348.794 C 166.629 348.804,166.959 347.946,166.351 347.561 C 165.594 347.082,164.900 347.114,164.572 347.645 M158.900 348.657 C 160.524 349.114,159.642 350.226,157.231 350.760 C 154.686 351.325,154.000 351.169,154.000 350.025 C 154.000 348.405,156.012 347.844,158.900 348.657 M160.400 352.400 C 160.400 353.045,160.133 353.200,159.024 353.200 C 157.617 353.200,156.959 352.714,157.400 352.000 C 157.899 351.193,160.400 351.527,160.400 352.400 M179.371 358.268 C 179.705 359.139,179.071 359.501,177.591 359.284 C 176.275 359.091,176.302 359.121,176.643 358.233 C 176.972 357.375,179.038 357.401,179.371 358.268 M185.200 358.600 C 185.200 359.658,184.436 359.867,182.484 359.344 C 181.616 359.111,181.603 359.059,182.246 358.349 C 183.301 357.183,185.200 357.344,185.200 358.600 " stroke="none" fill="#ccc9cc" fill-rule="evenodd"></path></g></svg>